<svg height="29" viewBox="0 0 116 29" width="116" xmlns="http://www.w3.org/2000/svg"><g fill="#3d3645" opacity=".64" transform="translate(0 -.5)"><path d="m0 1.231v-.731h5.747v19.3l5.262-5.993a2.2 2.2 0 0 0 .6-1.417c0-1.063-.839-1.654-2.395-1.654h-.12v-.745h7.589v.748h-.119c-1.2 0-2.675.866-4.311 2.756l-2.368 2.727 6.082 11.54h2.033v.738h-7.583v-.725h2.241l-4.871-9.2-2.04 2.325v6.87h2.753v.73h-8.5v-.73h2.793v-26.539z"/><path d="m31.137 23.172c-.61 3.368-2.707 5.573-5.154 5.573-3.369 0-4.733-2.409-4.733-7.642 0-.65.039-1.379.08-2.111h10.67c-.161-5.962-3.049-9.492-6.579-9.492a5.818 5.818 0 0 0 -4.492 2.15 11.272 11.272 0 0 0 -2.929 7.708c0 5.842 3.41 10.142 7.7 10.142 3.128 0 5.5-2.271 6.218-6.328h-.784zm-9.767-4.927c.121-5.5 1.393-7.984 4.011-7.984 2.5 0 3.45 1.754 3.45 5.933 0 .649 0 1.379-.04 2.051z"/><path d="m95.137 23.172c-.61 3.368-2.706 5.573-5.154 5.573-3.369 0-4.734-2.409-4.734-7.642 0-.65.041-1.379.08-2.111h10.671c-.16-5.962-3.049-9.492-6.578-9.492a5.82 5.82 0 0 0 -4.493 2.15 11.269 11.269 0 0 0 -2.929 7.708c0 5.842 3.41 10.142 7.7 10.142 3.128 0 5.5-2.271 6.218-6.328h-.783zm-9.767-4.927c.122-5.5 1.393-7.984 4.012-7.984 2.5 0 3.45 1.754 3.45 5.933 0 .649 0 1.379-.041 2.051z"/><path d="m44.931 11.309a1.884 1.884 0 0 0 -1.8-1.058c-2.533 0-4.425 3.79-4.425 9.462v8.057h2.791v.73h-8.497v-.73h2.752v-17.028h-2.752v-.742h5.542l.16 4.063c.906-3.107 2.471-4.559 4.624-4.559a2.687 2.687 0 0 1 2.674 2.854 1.809 1.809 0 0 1 -1.8 1.929 1.561 1.561 0 0 1 -1.635-1.615 1.522 1.522 0 0 1 1.515-1.653 1.434 1.434 0 0 1 .848.29"/><path d="m108.93 11.309a1.882 1.882 0 0 0 -1.8-1.058c-2.533 0-4.426 3.79-4.426 9.462v8.057h2.791v.73h-8.495v-.73h2.752v-17.028h-2.752v-.742h5.543l.159 4.063c.907-3.107 2.472-4.559 4.626-4.559a2.686 2.686 0 0 1 2.672 2.854 1.809 1.809 0 0 1 -1.795 1.929 1.562 1.562 0 0 1 -1.635-1.615 1.523 1.523 0 0 1 1.515-1.653 1.434 1.434 0 0 1 .846.29"/><path d="m57.282 10.282h-2.931c-2.965 0-4.874 1.967-5.74 6.051h-.571v-6.833h12.86l-10.34 18.257h3.915c3.3 0 5.026-1.8 5.935-6.089h.59v6.832h-14z"/><path d="m73.708 10.554c-2.6 0-4.952 3.548-4.952 8.92v8.295h2.819v.731h-8.575v-.732h2.778v-17.085h-2.778v-.749h5.6l.162 4.849c.761-3.222 3.138-5.283 5.752-5.283 2.737 0 4.709 2.212 4.709 6.162v12.106h2.777v.732h-8.574v-.732h2.774v-13.382c0-2.568-.847-3.833-2.5-3.833"/><path d="m111.678 6.616c-.1-.43-.25-.785-.652-.785a.616.616 0 0 0 -.552.657c0 .958 1.525.583 1.525 1.926a.97.97 0 0 1 -.934 1.086c-.559 0-.957-.42-1.066-1.086l.318-.094c.077.454.358.85.752.85a.658.658 0 0 0 .6-.711c0-1.066-1.526-.622-1.526-1.91a.95.95 0 0 1 .9-1.047c.495 0 .812.45.93 1z"/><path d="m113.4 9.5h-.4v-4h.664l.828 3.3h.015l.815-3.3h.678v4h-.4v-3.625h-.01l-.927 3.625h-.326l-.927-3.625h-.01z"/></g></svg>