<svg xmlns="http://www.w3.org/2000/svg" xmlns:xlink="http://www.w3.org/1999/xlink" width="110" height="110" viewBox="0 0 110 110"><defs><filter id="a" x="0" y="0" width="110" height="110" filterUnits="userSpaceOnUse"><feOffset input="SourceAlpha"/><feGaussianBlur stdDeviation="5" result="b"/><feFlood flood-opacity="0.502"/><feComposite operator="in" in2="b"/><feComposite in="SourceGraphic"/></filter></defs><g transform="translate(-96 15)"><g transform="matrix(1, 0, 0, 1, 96, -15)" filter="url(#a)"><circle cx="40" cy="40" r="40" transform="translate(15 15)" fill="rgba(0,147,221,0.7)"/></g><g transform="translate(137 19)"><path d="M11.323,19A11.3,11.3,0,0,1,0,7.825V.864A.869.869,0,0,1,.875,0h26.25A.869.869,0,0,1,28,.864V7.825A11.3,11.3,0,0,1,16.678,19Z" transform="translate(0 12)" fill="#fff"/><path d="M14.7,12.991a1.1,1.1,0,0,1-.279,0,.869.869,0,0,1-.5-.436.859.859,0,0,1-.044-.662,10.944,10.944,0,0,0,0-5.567.157.157,0,0,0-.113-.173c-.871-.406-3.849.934-5.826,1.824-3.179,1.418-5.687,2.542-6.9,1.349C-.97,7.337.5,1.787.815.681A.865.865,0,0,1,1.2.132a.882.882,0,0,1,1.225.3.859.859,0,0,1,.077.686c-.662,2.317-1.167,5.991-.218,6.916.566.259,3.3-.968,4.938-1.729,3.074-1.375,5.73-2.593,7.306-1.8a1.921,1.921,0,0,1,1.036,1.357,12.55,12.55,0,0,1,0,6.536.871.871,0,0,1-.871.588Z" transform="translate(13 29)" fill="#fff"/><path d="M.5,14c-.276,0-.5-.392-.5-.875V.875C0,.392.224,0,.5,0s.5.392.5.875v12.25C1,13.608.776,14,.5,14Z" transform="translate(4)" fill="#fff"/><path d="M.5,14c-.276,0-.5-.392-.5-.875V.875C0,.392.224,0,.5,0s.5.392.5.875v12.25C1,13.608.776,14,.5,14Z" transform="translate(6)" fill="#fff"/><path d="M.5,14c-.276,0-.5-.392-.5-.875V.875C0,.392.224,0,.5,0s.5.392.5.875v12.25C1,13.608.776,14,.5,14Z" transform="translate(23)" fill="#fff"/><path d="M.5,14c-.276,0-.5-.392-.5-.875V.875C0,.392.224,0,.5,0s.5.392.5.875v12.25C1,13.608.776,14,.5,14Z" transform="translate(20)" fill="#fff"/><path d="M22.115,1H.885C.4,1,0,.776,0,.5S.4,0,.885,0H22.115C22.6,0,23,.224,23,.5S22.6,1,22.115,1Z" transform="translate(2 15)" fill="#fff"/><path d="M10.154,1H.846C.379,1,0,.776,0,.5S.379,0,.846,0h9.308c.467,0,.846.224.846.5S10.621,1,10.154,1Z" transform="translate(9 27)" fill="#fff"/></g></g></svg>