<svg xmlns="http://www.w3.org/2000/svg" xmlns:xlink="http://www.w3.org/1999/xlink" width="62" height="62.341" viewBox="0 0 62 62.341"><defs><filter id="a" x="0" y="0" width="62" height="62.341" filterUnits="userSpaceOnUse"><feOffset dy="2" input="SourceAlpha"/><feGaussianBlur stdDeviation="2" result="b"/><feFlood flood-opacity="0.204"/><feComposite operator="in" in2="b"/><feComposite in="SourceGraphic"/></filter></defs><g transform="translate(6 4)"><g transform="matrix(1, 0, 0, 1, -6, -4)" filter="url(#a)"><ellipse cx="25" cy="25.17" rx="25" ry="25.17" transform="translate(6 4)" fill="#0095e4"/></g><g transform="translate(13 15.102)"><path d="M.184,1.552c3.431,2.965,9.452,8.18,11.221,9.807a1.031,1.031,0,0,0,1.512,0c1.771-1.628,7.792-6.844,11.223-9.809a.539.539,0,0,0,.073-.733A2.054,2.054,0,0,0,22.579,0H1.746A2.054,2.054,0,0,0,.111.819.538.538,0,0,0,.184,1.552Z" transform="translate(0.338)" fill="#f5f5f5"/><path d="M8.177.05a.51.51,0,0,0-.555.077C5.375,2.07,2.414,4.637.181,6.6A.538.538,0,0,0,.2,7.414c2.075,1.7,5.2,4.027,7.459,5.685a.511.511,0,0,0,.542.041.532.532,0,0,0,.283-.473V.532A.532.532,0,0,0,8.177.05Z" transform="translate(16.521 3.109)" fill="#f5f5f5"/><path d="M.825,13.1c2.258-1.657,5.385-3.989,7.46-5.685A.538.538,0,0,0,8.3,6.6C6.066,4.637,3.1,2.069.858.126A.513.513,0,0,0,.3.049.532.532,0,0,0,0,.531V12.667a.532.532,0,0,0,.283.473A.511.511,0,0,0,.825,13.1Z" transform="translate(0 3.11)" fill="#f5f5f5"/><path d="M23.941,6.663C21.76,5.072,17.743,2.1,15.346.119a.514.514,0,0,0-.67.012c-.47.419-.864.772-1.143,1.028a2.079,2.079,0,0,1-2.907,0C10.347.9,9.953.548,9.482.131a.511.511,0,0,0-.67-.012C6.423,2.1,2.4,5.069.218,6.663a.538.538,0,0,0-.078.794,2.068,2.068,0,0,0,1.523.682H22.5a2.071,2.071,0,0,0,1.523-.682.538.538,0,0,0-.078-.794Z" transform="translate(0.421 10.99)" fill="#f5f5f5"/></g></g></svg>