<svg xmlns="http://www.w3.org/2000/svg" xmlns:xlink="http://www.w3.org/1999/xlink" width="62" height="62.341" viewBox="0 0 62 62.341"><defs><filter id="a" x="0" y="0" width="62" height="62.341" filterUnits="userSpaceOnUse"><feOffset dy="2" input="SourceAlpha"/><feGaussianBlur stdDeviation="2" result="b"/><feFlood flood-opacity="0.204"/><feComposite operator="in" in2="b"/><feComposite in="SourceGraphic"/></filter></defs><g transform="translate(6 4.296)"><g transform="translate(0 -0.296)"><g transform="matrix(1, 0, 0, 1, -6, -4)" filter="url(#a)"><ellipse cx="25" cy="25.17" rx="25" ry="25.17" transform="translate(6 4)" fill="#0093dd"/></g></g><g transform="translate(3.6 2.904)"><path d="M20.336,16.7a4.936,4.936,0,1,0,4.936,4.936A4.945,4.945,0,0,0,20.336,16.7Zm0,8.1A3.162,3.162,0,1,1,23.5,21.636,3.176,3.176,0,0,1,20.336,24.8Z" transform="translate(1.258 1.292)" fill="#fff"/><circle cx="1.9" cy="1.9" r="1.9" transform="translate(25.835 14.23)" fill="#fff"/><path d="M26.974,6.92A7.363,7.363,0,0,0,21.546,4.8H10.9a7.082,7.082,0,0,0-7.5,7.5v10.6a7.439,7.439,0,0,0,2.171,5.532,7.544,7.544,0,0,0,5.376,2.016H21.494a7.634,7.634,0,0,0,5.428-2.016,7.4,7.4,0,0,0,2.12-5.48V12.3A7.411,7.411,0,0,0,26.974,6.92Zm-.207,16.026a5.051,5.051,0,0,1-1.5,3.774,5.344,5.344,0,0,1-3.774,1.344H10.948a5.344,5.344,0,0,1-3.774-1.344,5.2,5.2,0,0,1-1.4-3.826V12.3a5.154,5.154,0,0,1,1.4-3.774,5.257,5.257,0,0,1,3.774-1.344H21.6a5.154,5.154,0,0,1,3.774,1.4,5.335,5.335,0,0,1,1.4,3.722V22.945Z" transform="translate(5.489 4.489)" fill="#fff"/></g></g></svg>