<svg xmlns="http://www.w3.org/2000/svg" xmlns:xlink="http://www.w3.org/1999/xlink" width="62" height="62.341" viewBox="0 0 62 62.341"><defs><filter id="a" x="0" y="0" width="62" height="62.341" filterUnits="userSpaceOnUse"><feOffset dy="2" input="SourceAlpha"/><feGaussianBlur stdDeviation="2" result="b"/><feFlood flood-opacity="0.204"/><feComposite operator="in" in2="b"/><feComposite in="SourceGraphic"/></filter></defs><g transform="translate(6 4)"><g transform="matrix(1, 0, 0, 1, -6, -4)" filter="url(#a)"><ellipse cx="25" cy="25.17" rx="25" ry="25.17" transform="translate(6 4)" fill="#0093dd"/></g><g transform="translate(13 13.089)"><path d="M22.994,16.521a14.106,14.106,0,0,1-4.458-.715,2.027,2.027,0,0,0-1.982.421l-2.811,2.136a15.588,15.588,0,0,1-6.984-7.031l2.06-2.756a2.044,2.044,0,0,0,.5-2.061A14.4,14.4,0,0,1,8.6,2.02,2.015,2.015,0,0,0,6.6,0H2.006A2.015,2.015,0,0,0,0,2.02,23.1,23.1,0,0,0,22.994,25.17,2.015,2.015,0,0,0,25,23.151v-4.61A2.015,2.015,0,0,0,22.994,16.521Z" transform="translate(0)" fill="#f5f5f5"/></g></g></svg>