<svg xmlns="http://www.w3.org/2000/svg" xmlns:xlink="http://www.w3.org/1999/xlink" width="110" height="110" viewBox="0 0 110 110"><defs><filter id="a" x="0" y="0" width="110" height="110" filterUnits="userSpaceOnUse"><feOffset input="SourceAlpha"/><feGaussianBlur stdDeviation="5" result="b"/><feFlood flood-opacity="0.502"/><feComposite operator="in" in2="b"/><feComposite in="SourceGraphic"/></filter></defs><g transform="translate(-95 14.5)"><g transform="matrix(1, 0, 0, 1, 95, -14.5)" filter="url(#a)"><circle cx="40" cy="40" r="40" transform="translate(15 15)" fill="rgba(0,147,221,0.7)"/></g><g transform="translate(130 19.5)"><circle cx="3" cy="3" r="3" transform="translate(17 32)" fill="#fff"/><circle cx="3" cy="3" r="3" transform="translate(30 4)" fill="#fff"/><circle cx="3" cy="3" r="3" transform="translate(4 4)" fill="#fff"/><path d="M33.6,4.507A74.291,74.291,0,0,0,19.972,3,74.291,74.291,0,0,0,6.341,4.507L4,7.356v8.712c0,15.1,14.55,21.409,14.55,21.409h2.842s14.552-6.312,14.552-21.409V7.356ZM29.71,14.19,18.733,25.167a1.451,1.451,0,0,1-2.053,0l-5.014-5.014A1.452,1.452,0,0,1,13.719,18.1l3.987,3.987,9.95-9.95A1.452,1.452,0,1,1,29.71,14.19Z" fill="#fff"/></g></g></svg>