<svg height="70" viewBox="0 0 70 70" width="70" xmlns="http://www.w3.org/2000/svg"><circle cx="35" cy="35" fill="#0093dd" r="35"/><g transform="translate(19 19)"><path d="m0 0h32v32h-32z" fill="none"/><g fill="#fff"><path d="m28 8h-4l-4-4h-8l-4 4h-4s-4 0-4 4v12c0 4 4 4 4 4h11.518a8.992 8.992 0 0 0 15.918-1.888 5.008 5.008 0 0 0 .564-2.112v-12c0-4-4-4-4-4zm-13.967 15.66a5.993 5.993 0 1 1 6.673-9.354 8.993 8.993 0 0 0 -6.706 8.694c0 .223.018.441.033.66zm8.967 6.223a6.884 6.884 0 1 1 6.883-6.883 6.9 6.9 0 0 1 -6.883 6.883z"/><path d="m18 23 2-2 2 2 4-4 2 2-6 6z"/></g></g></svg>