<svg height="70" viewBox="0 0 70 70" width="70" xmlns="http://www.w3.org/2000/svg"><circle cx="35" cy="35" fill="#0093dd" r="35"/><g fill="#fff" transform="translate(17.988 19.07)"><path d="m15.947 14.341h3.101v3.101h-3.101z"/><path d="m8.718 7.76a9.3 9.3 0 0 0 0 13.163l2.2-2.186a6.2 6.2 0 0 1 0-8.791z" transform="translate(2.189 1.558)"/><path d="m17.032 20.913a9.3 9.3 0 0 0 0-13.163l-2.2 2.186a6.2 6.2 0 0 1 0 8.791z" transform="translate(7.055 1.552)"/><path d="m8.737 24.651a12.4 12.4 0 0 1 0-17.519l-2.186-2.202a15.5 15.5 0 0 0 0 21.922z"/><path d="m17.65 7.132a12.4 12.4 0 0 1 0 17.519l2.186 2.2a15.5 15.5 0 0 0 0-21.922z" transform="translate(8.607)"/></g></svg>