<svg xmlns="http://www.w3.org/2000/svg" xmlns:xlink="http://www.w3.org/1999/xlink" width="110" height="110" viewBox="0 0 110 110"><defs><filter id="a" x="0" y="0" width="110" height="110" filterUnits="userSpaceOnUse"><feOffset input="SourceAlpha"/><feGaussianBlur stdDeviation="5" result="b"/><feFlood flood-opacity="0.502"/><feComposite operator="in" in2="b"/><feComposite in="SourceGraphic"/></filter></defs><g transform="translate(-96 15)"><g transform="matrix(1, 0, 0, 1, 96, -15)" filter="url(#a)"><circle cx="40" cy="40" r="40" transform="translate(15 15)" fill="rgba(0,147,221,0.7)"/></g><g transform="translate(131 25)"><path d="M20,0A30.934,30.934,0,0,0,0,7.389L2.488,10a27.386,27.386,0,0,1,35.024,0L40,7.389A30.934,30.934,0,0,0,20,0Z" fill="#fff"/><path d="M0,5.281,2.484,8A19.242,19.242,0,0,1,26.516,8L29,5.281A22.765,22.765,0,0,0,14.5,0,22.765,22.765,0,0,0,0,5.281Z" transform="translate(6 7)" fill="#fff"/><path d="M0,2.595,2.485,5a13.441,13.441,0,0,1,13.03,0L18,2.595a16.905,16.905,0,0,0-18,0Z" transform="translate(11 15)" fill="#fff"/><circle cx="3.5" cy="3.5" r="3.5" transform="translate(17 23)" fill="#fff"/></g></g></svg>