<svg xmlns="http://www.w3.org/2000/svg" width="70" height="70" viewBox="0 0 70 70"><g transform="translate(-862 -1431.5)"><circle cx="35" cy="35" r="35" transform="translate(862 1431.5)" fill="#0093dd"/><g transform="translate(885 1454.5)"><path d="M5.5,11h13A5.549,5.549,0,0,0,24,5.5,5.549,5.549,0,0,0,18.5,0H5.5A5.549,5.549,0,0,0,0,5.5,5.549,5.549,0,0,0,5.5,11Zm0-9h13A3.543,3.543,0,0,1,22,5.5,3.543,3.543,0,0,1,18.5,9H5.5A3.543,3.543,0,0,1,2,5.5,3.543,3.543,0,0,1,5.5,2Z" fill="#fff"/><path d="M18.5,8A2.54,2.54,0,0,0,21,5.5a2.5,2.5,0,0,0-5,0A2.476,2.476,0,0,0,18.5,8Zm0-4A1.538,1.538,0,0,1,20,5.5a1.5,1.5,0,0,1-3,0A1.473,1.473,0,0,1,18.5,4Z" fill="#fff"/><path d="M18.5,13H5.5a5.5,5.5,0,0,0,0,11h13a5.5,5.5,0,0,0,0-11Zm0,9H5.5a3.5,3.5,0,0,1,0-7h13a3.5,3.5,0,0,1,0,7Z" fill="#fff"/><path d="M5.5,16A2.5,2.5,0,1,0,8,18.5,2.476,2.476,0,0,0,5.5,16Zm0,4a1.5,1.5,0,0,1,0-3,1.5,1.5,0,0,1,0,3Z" fill="#fff"/></g></g></svg>