<svg xmlns="http://www.w3.org/2000/svg" xmlns:xlink="http://www.w3.org/1999/xlink" width="247" height="84.546" viewBox="0 0 247 84.546"><defs><clipPath id="a"><path d="M0,0H37.007V38.861H0V0Z" transform="translate(0.579 0.454)" fill="none"/></clipPath></defs><g transform="translate(0 -0.454)"><path d="M27.321,0c-1.776,0-2.015,1.451-2.015,2.871V22.027L8.819.137,8.715,0H0V1.525l.342,0c.665,0,1.179.43,1.525,1.267A9.39,9.39,0,0,1,2.215,6.08V34.126c0,2.2.91,3.315,2.706,3.315H9.035v-.367c-.012-2.8-.012-2.918-.009-5.705,0-2.653.008-7.719.009-19.8L28.726,37.305l.1.135h3.3V0Z" transform="translate(213.866 2.024)" fill="#191924"/><path d="M40.25,0,34.078,27.232,27.2.269,27.128,0H22.738L15.149,27.292,9.647,2.945C9.183.909,8.134,0,6.246,0H0V1.488l.339,0A2.452,2.452,0,0,1,2.566,3.643L9.88,32.949c.812,3.315,1.669,4.492,4.869,4.492h3.5l6.3-21.857,4.318,17.138c1.062,4.007,2.274,4.72,5.16,4.72h3.509L47.191,0Z" transform="translate(163.663 2.024)" fill="#191924"/><path d="M19.891,5.593c3.168,0,7.131,1.144,7.877,4.366l.064.276h1.285V1.881L28.9,1.793A25.6,25.6,0,0,0,19.481,0C13.6,0,8.618,1.984,5.087,5.736A19.713,19.713,0,0,0,0,19.374,19.252,19.252,0,0,0,5.05,32.85c3.518,3.665,8.555,5.6,14.568,5.6A25,25,0,0,0,28.9,36.808l.217-.09V30.355l-.449.168c-.2.075-.439.176-.715.291a17.191,17.191,0,0,1-6.968,1.6c-8.349,0-13.745-5.294-13.745-13.487,0-7.854,5.2-13.339,12.65-13.339" transform="translate(62.252 1.012)" fill="#191924"/><g transform="translate(125.508)"><path d="M0,0H37.007V38.861H0V0Z" transform="translate(0.579 0.454)" fill="none"/><g clip-path="url(#a)"><path d="M32.077,5.669A17.7,17.7,0,0,0,18.573,0,17.688,17.688,0,0,0,4.886,5.9,20.546,20.546,0,0,0,0,19.576,19.959,19.959,0,0,0,4.981,33.311c3.382,3.63,8.13,5.55,13.732,5.55,10.772,0,18.295-8.05,18.295-19.576a20.083,20.083,0,0,0-4.93-13.616" transform="translate(0.579 0.453)" fill="#191924"/><path d="M10.9,0c6.518,0,10.9,5.412,10.9,13.469,0,6.417-3.366,13.324-10.758,13.324C5.543,26.793,0,22.628,0,13.323,0,5.354,4.38,0,10.9,0" transform="translate(8.253 6.561)" fill="#fff"/></g></g><path d="M30.2,36.625c-2.435-1.747-8.27-11.232-9.9-14.883,4.122-2.626,5.663-5.615,5.663-10.91,0-4.9-2.913-9.015-7.249-10.23A17.108,17.108,0,0,0,14.1,0H0V1.4l.271.061C2,1.843,2.333,3.078,2.333,5.084V34.275c0,2.071.971,3.166,2.807,3.166h4.2l0-.366c-.014-3.144-.009-6.341,0-9.433q0-2.178,0-4.355h4.291c.261.495.56,1.1.9,1.786,1.39,2.8,3.293,6.641,5.617,9.3,2.37,2.714,4.819,2.917,8.286,2.917h2.7Z" transform="translate(95.386 2.024)" fill="#191924"/><path d="M9.635,6.122c0,3.019-1.267,6.269-4.051,6.269H0V0H4.762C7.723,0,9.635,2.4,9.635,6.122Z" transform="translate(104.721 7.472)" fill="#fff"/><path d="M31.126,5.866V0H0V8.364H1.363l.047-.3c.238-1.516.907-2.193,2.17-2.193h8.548V34.432c0,2.025.979,3.009,2.995,3.009h6.617V35.953l-.3-.045c-1.738-.263-2.209-.659-2.209-2.945V5.866Z" transform="translate(124.504 47.56)" fill="#191924"/><path d="M31.126,5.866V0H0V8.364H1.362l.048-.3c.237-1.516.907-2.193,2.17-2.193h8.548V34.432c0,2.025.979,3.009,2.995,3.009h6.617V35.953l-.3-.045c-1.738-.263-2.209-.659-2.209-2.945V5.866Z" transform="translate(184.748 47.56)" fill="#191924"/><path d="M26.584,29.412l-.1.182c-.888,1.645-1.508,1.956-3.9,1.956H9.341V20.781H24.576V14.89H9.341V5.815H26.777V0H0V1.408l.286.049c1.38.238,2.051,1.277,2.051,3.178V33.392c0,1.885.382,4.048,3.364,4.048H26.007l2.106-8.028Z" transform="translate(64.26 47.56)" fill="#191924"/><path d="M26.584,29.412l-.1.182c-.888,1.645-1.508,1.956-3.9,1.956H9.34V20.781H24.576V14.89H9.34V5.815H26.777V0H0V1.408l.286.049c1.38.238,2.052,1.277,2.052,3.178V33.392c0,1.885.382,4.048,3.364,4.048H26.007l2.106-8.028Z" transform="translate(218.886 47.56)" fill="#191924"/><path d="M37.85,35.852a3.3,3.3,0,0,1-2.668-2.385L21.785,0H15.156L0,37.44H4.976c2.054,0,2.688-1.369,3.2-2.875l2.5-6.266H25.712l2.472,6.248c.663,1.96,1.394,2.894,3.756,2.894h6.215V35.887Z" transform="translate(150.61 47.56)" fill="#191924"/><path d="M11.078,14.778H0L5.57,0Z" transform="translate(163.301 55.927)" fill="#fff"/><path d="M16.874,16.4l-2.733-1.149c-.324-.137-.668-.274-1.023-.416C10.533,13.8,7.315,12.513,7.359,9.9c.047-2.83,2.482-4.428,6.676-4.349a16.442,16.442,0,0,1,5.1.957,5.829,5.829,0,0,1,3.783,3.229L23,9.968l1.3.023.064-7.712L24.1,2.166A26.026,26.026,0,0,0,14.273,0C9.885-.077,6.212,1.024,3.62,3.173A9.648,9.648,0,0,0,0,10.5c-.1,5.923,4.85,8.7,9.173,10.467l2.971,1.208c2.593,1.042,6.511,2.616,6.461,5.653-.04,2.414-1.933,5-7.124,5h0l-.287,0A25.035,25.035,0,0,1,.764,29.74l-.509-.289.006,3.824c-.034,2.049.476,3.175,3.464,4.041a29.587,29.587,0,0,0,7.232,1.132c.171,0,.341,0,.51,0h0c8.781,0,14.526-4.26,14.636-10.853.111-6.709-4.3-9.125-9.229-11.2" transform="translate(96.39 46.548)" fill="#191924"/><path d="M17.069,3.538V0H0V4.959H.83l.028-.183c.133-.856.506-1.238,1.209-1.238h4.3V19.525A1.5,1.5,0,0,0,8.059,21.25h4.132v-.977l-.176-.027c-.971-.148-1.233-.372-1.233-1.666V3.538Z" transform="translate(0 2.024)" fill="#191924"/><path d="M15.133,16.418l-.059.109c-.51.937-.84,1.1-2.209,1.1H5.735v-5.7h8.273V8.315H5.735V3.577h9.523V0H0V.909l.172.03c.779.134,1.157.721,1.157,1.792V18.943c0,1.074.219,2.307,1.925,2.307H14.82l1.245-4.832Z" transform="translate(39.159 2.024)" fill="#191924"/><path d="M12.184,0V.908l.175.029c.8.135,1.184.722,1.184,1.794V8.341H5.89V0H0V.908L.175.937c.8.135,1.184.722,1.184,1.794V21.25H5.89V11.943h7.653V21.25h4.53V0Z" transform="translate(19.077 2.024)" fill="#191924"/><path d="M49.615,19.623c.007-.13.011-.258.011-.379s0-.25,0-.373a1.172,1.172,0,0,0,.166.012,1.5,1.5,0,0,0,0-2.988,1.345,1.345,0,0,0-.577.131c-.073-.284-.165-.62-.283-.983a1.5,1.5,0,0,0-.288-2.95,1.361,1.361,0,0,0-.967.407,8.365,8.365,0,0,0-.651-.8,1.5,1.5,0,0,0,.518-1.148,1.46,1.46,0,0,0-1.418-1.495,1.415,1.415,0,0,0-1.3.916,10.78,10.78,0,0,0-1.033-.527,1.528,1.528,0,0,0,.222-.794,1.42,1.42,0,1,0-2.837,0,1.353,1.353,0,0,0,.01.166,6,6,0,0,0-1.229.01A1.477,1.477,0,0,0,40,8.459a1.42,1.42,0,1,0-2.837,0,1.519,1.519,0,0,0,.332.951,9.764,9.764,0,0,0-1.034.489,1.441,1.441,0,0,0-1.393-1.216,1.459,1.459,0,0,0-1.42,1.492,1.508,1.508,0,0,0,.636,1.244,25.572,25.572,0,0,0-2.164,2.046l.2.283c2.774-1.638,5.038-2.654,7.752-2.654A7.257,7.257,0,0,1,45.3,13.2a8.313,8.313,0,0,1,2.116,5.833,23.843,23.843,0,0,1-.8,5.436h-3.7l.891,4.24-2.9-1.241.2.424a8.1,8.1,0,0,1,0,6.227l-.169.4,1.645-.7c-.1,1.267-.9,3.331-2.578,3.331-1.178,0-2.033-.835-2.54-2.481a4.7,4.7,0,0,1-.217-1.382c0-.649.183-1.134.466-1.264a.461.461,0,0,1,.2-.036c.519,0,1.312.949,1.555,2.173l.084.423.225-.361a7.749,7.749,0,0,0,.946-2.642,8.488,8.488,0,0,0,.1-1.185,3.286,3.286,0,0,0-.782-2.26,1.7,1.7,0,0,0-1.247-.574,1.944,1.944,0,0,0-1.637,1.01c-.049.073-.089.131-.122.175.029-.084.072-.189.133-.334a6.581,6.581,0,0,0,.632-2.688,10.562,10.562,0,0,0-1.268-3.987q-.18-.406-.378-.853l-.429-.97-.429.97c-.131.3-.257.581-.377.85a10.558,10.558,0,0,0-1.268,3.989,6.58,6.58,0,0,0,.632,2.688c.061.146.1.25.133.334-.033-.045-.073-.1-.121-.174a1.946,1.946,0,0,0-1.637-1.01,1.7,1.7,0,0,0-1.248.575,3.279,3.279,0,0,0-.782,2.259,8.637,8.637,0,0,0,.1,1.186,7.765,7.765,0,0,0,.946,2.641l.225.361.084-.423c.244-1.224,1.036-2.173,1.554-2.173a.474.474,0,0,1,.2.035c.284.131.463.616.467,1.265a4.654,4.654,0,0,1-.217,1.382,3.384,3.384,0,0,1-3.173,2.491,3.468,3.468,0,0,1-3.4-2.727,5.3,5.3,0,0,1-.213-1.067l3.183,1.361-.169-.4a8.1,8.1,0,0,1,0-6.227l.2-.422-2.7,1.144,2-3.946h-1.85v-7.6a4.186,4.186,0,0,0,1.723-3.42,3.93,3.93,0,0,0-.712-2.3,8.813,8.813,0,0,0-.838-.99,2.577,2.577,0,0,1-.69-1.052c0-.016-.006-.062-.008-.127l4.519,1.723V3.387L27.809,4.914,29.438,0h-7.67L23.4,4.914,19.361,3.387v7.72L23.88,9.384a1.243,1.243,0,0,1-.008.124,2.566,2.566,0,0,1-.69,1.054,8.819,8.819,0,0,0-.838.991,3.93,3.93,0,0,0-.711,2.3,4.184,4.184,0,0,0,1.723,3.42v7.6H21.488L23.5,28.818l-2.7-1.144.2.422a8.088,8.088,0,0,1,0,6.227l-.169.4,3.183-1.361a5.239,5.239,0,0,1-.213,1.067,3.468,3.468,0,0,1-3.4,2.727,3.384,3.384,0,0,1-3.173-2.491,4.7,4.7,0,0,1-.217-1.382c0-.649.183-1.134.466-1.264a.464.464,0,0,1,.2-.036c.519,0,1.312.949,1.554,2.173l.084.423.225-.361a7.743,7.743,0,0,0,.946-2.642,8.467,8.467,0,0,0,.1-1.185,3.282,3.282,0,0,0-.782-2.259,1.7,1.7,0,0,0-1.248-.575,1.944,1.944,0,0,0-1.637,1.01c-.048.073-.089.13-.121.174.027-.082.07-.186.133-.334a6.592,6.592,0,0,0,.632-2.688A10.561,10.561,0,0,0,16.3,21.734q-.18-.4-.378-.85l-.429-.971-.428.971c-.131.3-.257.581-.377.85a10.561,10.561,0,0,0-1.268,3.989,6.592,6.592,0,0,0,.632,2.688c.061.145.1.249.133.333-.033-.044-.073-.1-.121-.173a1.946,1.946,0,0,0-1.637-1.01,1.7,1.7,0,0,0-1.247.575,3.282,3.282,0,0,0-.782,2.259,8.489,8.489,0,0,0,.1,1.186,7.747,7.747,0,0,0,.946,2.641l.225.361.084-.423c.244-1.224,1.036-2.173,1.554-2.173a.462.462,0,0,1,.2.035c.284.131.463.616.468,1.265a4.689,4.689,0,0,1-.218,1.382c-.507,1.646-1.362,2.481-2.54,2.481-1.681,0-2.476-2.064-2.578-3.331l1.645.7-.168-.4a8.094,8.094,0,0,1,0-6.227l.2-.424L7.4,28.706l.891-4.24H4.6a23.811,23.811,0,0,1-.8-5.436A8.316,8.316,0,0,1,5.91,13.2a7.257,7.257,0,0,1,5.227-2.1c2.714,0,4.978,1.016,7.753,2.654l.2-.283a25.656,25.656,0,0,0-2.165-2.046,1.507,1.507,0,0,0,.636-1.244,1.459,1.459,0,0,0-1.42-1.492A1.437,1.437,0,0,0,14.756,9.9a9.579,9.579,0,0,0-1.039-.492,1.515,1.515,0,0,0,.332-.951,1.42,1.42,0,1,0-2.837,0,1.511,1.511,0,0,0,.045.367,6,6,0,0,0-1.229-.01,1.353,1.353,0,0,0,.01-.166,1.42,1.42,0,1,0-2.837,0,1.528,1.528,0,0,0,.222.794,10.7,10.7,0,0,0-1.033.527,1.414,1.414,0,0,0-1.3-.916A1.46,1.46,0,0,0,3.668,10.55,1.5,1.5,0,0,0,4.186,11.7a8.252,8.252,0,0,0-.65.8,1.362,1.362,0,0,0-.968-.407,1.5,1.5,0,0,0-.288,2.95c-.119.362-.211.7-.283.983a1.345,1.345,0,0,0-.577-.131,1.5,1.5,0,0,0,0,2.988,1.189,1.189,0,0,0,.167-.012c0,.123,0,.247,0,.373s0,.248.011.379a1.493,1.493,0,0,0-.079,2.984,1.3,1.3,0,0,0,.479-.092c.062.306.124.594.187.869a1.5,1.5,0,0,0,.07,2.988,1.324,1.324,0,0,0,.658-.175q.1.352.2.709a1.5,1.5,0,0,0,.2,2.972,1.339,1.339,0,0,0,.655-.173c.584,1.837,1.209,3.691,1.813,5.486l.443,1.316c1.132,3.372,2,6.049,2.542,8.158L9,45.536H42.212l.228-.872c.545-2.109,1.411-4.787,2.543-8.157l.44-1.307c.606-1.8,1.231-3.653,1.816-5.495a1.339,1.339,0,0,0,.655.173,1.5,1.5,0,0,0,.2-2.968q.1-.358.205-.713a1.325,1.325,0,0,0,.658.175,1.5,1.5,0,0,0,.069-2.988c.064-.28.126-.567.187-.869a1.3,1.3,0,0,0,.479.092,1.493,1.493,0,0,0-.079-2.984" transform="translate(3.012 38.452)" fill="#191924"/></g></svg>